<svg width="56" height="47" viewBox="0 0 56 47" fill="none" xmlns="http://www.w3.org/2000/svg">
<g style="mix-blend-mode:overlay">
<path d="M0.892266 44.8676C0.995113 44.9037 1.10491 44.9315 1.22165 44.951C1.3384 44.9677 1.45375 44.976 1.56772 44.976C1.68447 44.976 1.79565 44.9635 1.90128 44.9385V39.2764H4.03188V42.9497C4.03188 43.6807 3.84703 44.2366 3.47734 44.6174C3.06317 45.0427 2.4169 45.2554 1.53853 45.2554C0.960367 45.2554 0.521183 45.1233 0.220982 44.8593L0.150101 44.7884C0.0500336 44.6828 0.00416947 44.591 0.0125084 44.5132C0.0319659 44.3826 0.0903385 44.3228 0.187626 44.3339C0.282134 44.3506 0.355795 44.4048 0.408608 44.4965C0.464201 44.5883 0.532302 44.6633 0.612912 44.7217C0.696301 44.78 0.789419 44.8287 0.892266 44.8676ZM8.26389 44.901C7.90809 45.1372 7.51338 45.2554 7.07976 45.2554C6.50437 45.2554 6.04295 45.1108 5.69549 44.8217C5.33414 44.5243 5.15346 44.1115 5.15346 43.5834C5.15346 43.1164 5.33275 42.7328 5.69132 42.4326C6.05824 42.1297 6.54051 41.9782 7.13813 41.9782C7.5384 41.9782 7.91365 42.0546 8.26389 42.2075V41.0609C8.01094 40.9886 7.78718 40.9525 7.5926 40.9525C7.40081 40.9525 7.2382 40.9608 7.10477 40.9775C6.97135 40.9942 6.84488 41.0192 6.72535 41.0525C6.46684 41.1248 6.27088 41.2221 6.13746 41.3444C6.05963 41.4167 5.98875 41.4528 5.92481 41.4528C5.86088 41.4528 5.81224 41.4375 5.77888 41.4069C5.74553 41.3736 5.72885 41.3375 5.72885 41.2985C5.72885 41.2596 5.7358 41.2249 5.7497 41.1943C5.76359 41.1609 5.79 41.1276 5.82892 41.0942C5.91231 41.022 6.05129 40.9497 6.24586 40.8774C6.64891 40.7245 7.05335 40.6481 7.45918 40.6481C8.69334 40.6481 9.48137 40.9427 9.82327 41.532C9.97337 41.7933 10.0484 42.1366 10.0484 42.5619V45.1761H8.26389V44.901ZM8.26389 42.5327C7.91365 42.3631 7.5648 42.2784 7.21735 42.2784C7.16176 42.2784 7.10894 42.2825 7.05891 42.2909V44.9427C7.07281 44.9454 7.0881 44.9468 7.10477 44.9468C7.12145 44.9468 7.13813 44.9468 7.15481 44.9468C7.53562 44.9468 7.90531 44.812 8.26389 44.5424V42.5327ZM12.229 39.9935C11.9427 39.9935 11.719 39.9296 11.5578 39.8017C11.3965 39.6738 11.3159 39.5057 11.3159 39.2972C11.3159 39.1221 11.4049 38.972 11.5828 38.8469C11.7718 38.7135 11.9719 38.6468 12.1832 38.6468C12.3944 38.6468 12.557 38.6676 12.671 38.7093C12.7878 38.751 12.8864 38.8052 12.967 38.8719C13.1283 39.0081 13.2089 39.1666 13.2089 39.3472C13.2089 39.5279 13.1171 39.6808 12.9337 39.8059C12.7502 39.931 12.5154 39.9935 12.229 39.9935ZM11.3535 40.7232H13.1463V45.1761H11.3535V40.7232ZM17.3492 45.2554C16.9628 45.2554 16.5889 45.1678 16.2276 44.9927V46.5104H14.5139V40.7232H16.2276V40.9525C16.5917 40.7496 16.9642 40.6481 17.345 40.6481C17.7258 40.6481 18.0621 40.7051 18.354 40.8191C18.6459 40.933 18.896 41.0901 19.1045 41.2902C19.5353 41.7127 19.7508 42.2534 19.7508 42.9121C19.7508 43.5765 19.5381 44.1282 19.1128 44.5674C18.6737 45.026 18.0858 45.2554 17.3492 45.2554ZM17.3366 40.9525C16.9253 40.9525 16.5556 41.0664 16.2276 41.2944V44.6216C16.6028 44.8384 17.0114 44.9468 17.4534 44.9468H17.5618C17.5952 44.9468 17.6271 44.944 17.6577 44.9385V40.9775C17.5521 40.9608 17.4451 40.9525 17.3366 40.9525ZM22.2775 45.2554C21.3018 45.2554 20.814 44.7787 20.814 43.8252V40.7232H22.5985V44.8051C22.6263 44.819 22.6611 44.8259 22.7028 44.8259H22.8403C23.0627 44.8259 23.3268 44.6758 23.6325 44.3756C23.7243 44.2839 23.8104 44.1838 23.8911 44.0754V40.7232H25.6839V45.1761H23.8911V44.534C23.438 45.0149 22.9001 45.2554 22.2775 45.2554ZM27.0473 40.7232H28.8402V42.0324C29.032 41.557 29.2377 41.2082 29.4573 40.9858C29.6797 40.7607 29.902 40.6481 30.1244 40.6481C30.2495 40.6481 30.3482 40.6815 30.4204 40.7482C30.4955 40.8121 30.533 40.8844 30.533 40.965C30.533 41.0456 30.5219 41.1095 30.4997 41.1568C30.4774 41.204 30.4482 41.2443 30.4121 41.2777C30.337 41.3472 30.2662 41.3819 30.1995 41.3819C30.0938 41.3819 30.016 41.3708 29.966 41.3486C29.8798 41.3097 29.8034 41.2902 29.7366 41.2902C29.6699 41.2902 29.5852 41.3444 29.4823 41.4528C29.3795 41.5584 29.2808 41.7058 29.1863 41.8948C28.9556 42.3562 28.8402 42.8565 28.8402 43.3958V45.1761H27.0473V40.7232ZM32.993 44.8759C32.8957 44.8204 32.8109 44.762 32.7387 44.7008C32.6692 44.6397 32.6344 44.5744 32.6344 44.5049C32.6344 44.3714 32.6914 44.3047 32.8054 44.3047C32.8804 44.3047 32.9638 44.3464 33.0555 44.4298C33.1473 44.5132 33.2501 44.5869 33.3641 44.6508C33.478 44.7119 33.6017 44.7648 33.7352 44.8092C34.0104 44.901 34.2647 44.9468 34.4982 44.9468C34.7317 44.9468 34.911 44.9315 35.036 44.901C35.1639 44.8704 35.2709 44.8287 35.3571 44.7759C35.5405 44.6619 35.6323 44.516 35.6323 44.3381C35.6323 44.1741 35.5531 44.0087 35.3946 43.8419C35.2612 43.7002 35.0722 43.5306 34.8276 43.3332L34.1146 42.7745C33.4002 42.2242 32.9791 41.721 32.8512 41.2652C32.8068 41.1067 32.7845 40.9302 32.7845 40.7357C32.7845 40.5411 32.8276 40.3493 32.9138 40.1603C33.0027 39.9713 33.1334 39.8059 33.3057 39.6641C33.6754 39.3556 34.1785 39.2013 34.8151 39.2013C35.1403 39.2013 35.4321 39.2499 35.6906 39.3472C35.9492 39.4417 36.1257 39.5265 36.2202 39.6016C36.3147 39.6766 36.3619 39.7447 36.3619 39.8059C36.3619 39.9337 36.3091 39.9977 36.2035 39.9977C36.1423 39.9977 36.077 39.9671 36.0075 39.9059C35.938 39.8448 35.8602 39.792 35.774 39.7475C35.6906 39.7002 35.5947 39.6586 35.4863 39.6224C35.2529 39.5446 35.0235 39.5057 34.7984 39.5057C34.3842 39.5057 34.1771 39.6419 34.1771 39.9143C34.1771 40.0282 34.2147 40.1339 34.2897 40.2312C34.4231 40.4007 34.683 40.6439 35.0694 40.9608C35.4585 41.2749 35.7699 41.5501 36.0034 41.7864C36.2396 42.0226 36.4189 42.2353 36.5412 42.4243C36.7358 42.7217 36.8331 43.0317 36.8331 43.3541C36.8331 43.6737 36.7761 43.9462 36.6621 44.1713C36.5509 44.3937 36.3939 44.5855 36.191 44.7467C35.7629 45.0858 35.232 45.2554 34.5982 45.2554C33.9645 45.2554 33.4294 45.1289 32.993 44.8759ZM41.3444 40.6481C42.3229 40.6481 42.8121 41.1234 42.8121 42.0741V45.1761H41.0192V41.1193C40.9692 41.0859 40.9025 41.0692 40.8191 41.0692C40.7385 41.0692 40.6537 41.0887 40.5648 41.1276C40.4758 41.1665 40.3827 41.2207 40.2854 41.2902C40.0769 41.4431 39.8921 41.6349 39.7309 41.8656V45.1761H37.938V39.2764H39.7309V41.4278C40.2062 40.908 40.744 40.6481 41.3444 40.6481ZM43.7919 42.9246C43.7919 42.5911 43.8517 42.2881 43.9712 42.0157C44.0935 41.7405 44.2603 41.5015 44.4715 41.2985C44.9274 40.8649 45.5 40.6481 46.1894 40.6481C46.8926 40.6481 47.4652 40.8733 47.9072 41.3236C48.3297 41.7488 48.5409 42.2867 48.5409 42.9371C48.5409 43.5904 48.3241 44.1366 47.8905 44.5757C47.443 45.0288 46.8704 45.2554 46.1727 45.2554C45.4917 45.2554 44.9274 45.0399 44.4799 44.6091C44.0212 44.1644 43.7919 43.6029 43.7919 42.9246ZM46.0559 44.9427C46.0782 44.9454 46.1004 44.9468 46.1227 44.9468H46.181C46.7425 44.9468 47.2137 44.7731 47.5945 44.4256C48.0003 44.0504 48.2032 43.5584 48.2032 42.9497C48.2032 42.3548 48.0128 41.8725 47.632 41.5028C47.2567 41.1359 46.7717 40.9525 46.1769 40.9525H46.1143C46.0949 40.9525 46.0754 40.9539 46.0559 40.9566V44.9427ZM52.4477 45.2554C52.0614 45.2554 51.6875 45.1678 51.3262 44.9927V46.5104H49.6125V40.7232H51.3262V40.9525C51.6903 40.7496 52.0628 40.6481 52.4436 40.6481C52.8244 40.6481 53.1607 40.7051 53.4526 40.8191C53.7444 40.933 53.9946 41.0901 54.2031 41.2902C54.6339 41.7127 54.8494 42.2534 54.8494 42.9121C54.8494 43.5765 54.6367 44.1282 54.2114 44.5674C53.7722 45.026 53.1843 45.2554 52.4477 45.2554ZM52.4352 40.9525C52.0238 40.9525 51.6541 41.0664 51.3262 41.2944V44.6216C51.7014 44.8384 52.11 44.9468 52.552 44.9468H52.6604C52.6937 44.9468 52.7257 44.944 52.7563 44.9385V40.9775C52.6507 40.9608 52.5436 40.9525 52.4352 40.9525Z" fill="#66268E"/>
</g>
<path d="M18.2977 20.1338C19.2231 20.6006 20.1757 21.0642 21.1322 21.5063C21.0904 20.2139 20.8077 18.6947 20.2058 16.909C19.1143 18.0781 18.4048 19.1815 18.2977 20.1338Z" fill="#FF0101"/>
<path d="M21.1322 21.5063C20.1757 21.0642 19.2231 20.6006 18.2977 20.1338C18.1651 21.3128 18.9557 22.2602 21.0875 22.8144C21.1311 22.4065 21.1472 21.9711 21.1322 21.5063Z" fill="#FF0101"/>
<path d="M22.3505 23.0815C22.8354 24.5949 23.4534 25.7503 24.2395 26.3176C25.1137 25.7636 25.9988 25.1849 26.8668 24.5922C25.7065 23.9815 24.2258 23.4623 22.3505 23.0815Z" fill="#FF0101"/>
<path d="M26.8668 24.5922C25.9988 25.1849 25.1137 25.7636 24.2395 26.3176C25.2125 27.0198 26.443 26.8208 27.9975 25.2842C27.6597 25.0432 27.284 24.8118 26.8668 24.5922Z" fill="#FF0101"/>
<path d="M32.4543 21.2562C31.3358 21.938 30.1378 22.9381 28.8645 24.3431C30.4411 24.6872 31.7686 24.7391 32.6617 24.3539C32.6104 23.3332 32.5428 22.291 32.4543 21.2562Z" fill="#FF0101"/>
<path d="M32.4543 21.2562C32.5428 22.291 32.6104 23.3332 32.6617 24.3539C33.7671 23.8772 34.2069 22.7309 33.6297 20.6403C33.2483 20.8072 32.8565 21.0111 32.4543 21.2562Z" fill="#FF0101"/>
<path d="M32.3072 14.8348C32.349 16.1273 32.6317 17.6465 33.2337 19.4323C34.3252 18.2631 35.0347 17.1597 35.1419 16.2074C34.2164 15.7406 33.2637 15.277 32.3072 14.8348Z" fill="#FF0101"/>
<path d="M32.3072 14.8348C33.2637 15.277 34.2164 15.7406 35.1419 16.2074C35.2745 15.0284 34.4839 14.0809 32.3519 13.5266C32.3083 13.9346 32.2922 14.37 32.3072 14.8348Z" fill="#FF0101"/>
<path d="M26.5728 11.7489C27.733 12.3596 29.2137 12.8788 31.089 13.2596C30.6041 11.7462 29.9861 10.5908 29.2001 10.0235C28.3258 10.5775 27.4408 11.1562 26.5728 11.7489Z" fill="#FF0101"/>
<path d="M26.5728 11.7489C27.4408 11.1562 28.3258 10.5775 29.2001 10.0235C28.227 9.3213 26.9965 9.52021 25.442 11.0568C25.7798 11.2979 26.1556 11.5293 26.5728 11.7489Z" fill="#FF0101"/>
<path d="M20.9851 15.0848C22.1036 14.4031 23.3016 13.403 24.5749 11.998C22.9984 11.654 21.6709 11.6021 20.7778 11.9872C20.829 13.0078 20.8967 14.05 20.9851 15.0848Z" fill="#FF0101"/>
<path d="M20.9851 15.0848C20.8967 14.05 20.829 13.0078 20.7778 11.9872C19.6723 12.4638 19.2324 13.6101 19.8097 15.7008C20.1911 15.5339 20.583 15.33 20.9851 15.0848Z" fill="#FF0101"/>
<path d="M40.6305 7.49911C40.6305 7.49911 33.0427 7.06625 32.3519 13.5266M9.33984 15.1502C9.33984 15.1502 13.4451 17.6862 18.2977 20.1338M43.0824 24.6699C43.0824 24.6699 39.6701 17.9981 33.6297 20.6403M20.6922 1.87422C20.6922 1.87422 20.5092 6.63487 20.7778 11.9872M29.1717 35.3411C29.1717 35.3411 33.3471 29.1021 27.9975 25.2842M38.0721 4.89437C38.0721 4.89437 33.784 7.11893 29.2001 10.0235M12.8089 28.842C12.8089 28.842 20.3968 29.2749 21.0875 22.8144M44.0995 21.1909C44.0995 21.1909 39.9944 18.655 35.1419 16.2074M10.3571 11.6712C10.3571 11.6712 13.7693 18.3429 19.8097 15.7008M32.7473 34.4668C32.7473 34.4668 32.9303 29.7062 32.6617 24.3539M24.2679 1C24.2679 1 20.0925 7.23894 25.442 11.0568M15.3674 31.4467C15.3674 31.4467 19.6556 29.2222 24.2395 26.3176M18.2977 20.1338C19.2231 20.6006 20.1757 21.0642 21.1322 21.5063M18.2977 20.1338C18.4048 19.1815 19.1143 18.0781 20.2058 16.909M18.2977 20.1338C18.1651 21.3128 18.9557 22.2602 21.0875 22.8144M21.1322 21.5063C21.0904 20.2139 20.8077 18.6947 20.2058 16.909M21.1322 21.5063C21.1472 21.9711 21.1311 22.4065 21.0875 22.8144M21.1322 21.5063C23.8576 22.7661 26.6147 23.8521 28.8645 24.3431M20.2058 16.909C20.1602 16.7736 20.1127 16.6367 20.0633 16.4983C19.9636 16.2184 19.8793 15.9527 19.8097 15.7008M20.2058 16.909C21.7635 15.2403 24.0994 13.4377 26.5728 11.7489M21.0875 22.8144C21.3444 22.8812 21.6207 22.9423 21.9172 22.9974C22.0639 23.0246 22.2083 23.0527 22.3505 23.0815M22.3505 23.0815C22.8354 24.5949 23.4534 25.7503 24.2395 26.3176M22.3505 23.0815C24.2258 23.4623 25.7065 23.9815 26.8668 24.5922M22.3505 23.0815C21.6584 20.9219 21.2372 18.0334 20.9851 15.0848M24.2395 26.3176C25.1137 25.7636 25.9988 25.1849 26.8668 24.5922M24.2395 26.3176C25.2125 27.0198 26.443 26.8208 27.9975 25.2842M26.8668 24.5922C27.284 24.8118 27.6597 25.0432 27.9975 25.2842M26.8668 24.5922C29.3401 22.9034 31.6759 21.1009 33.2337 19.4323M27.9975 25.2842C28.1847 25.0991 28.3767 24.8946 28.5735 24.6699C28.6709 24.5586 28.7679 24.4497 28.8645 24.3431M32.4543 21.2562C31.3358 21.938 30.1378 22.9381 28.8645 24.3431M32.4543 21.2562C32.5428 22.291 32.6104 23.3332 32.6617 24.3539M32.4543 21.2562C32.8565 21.0111 33.2483 20.8072 33.6297 20.6403M32.4543 21.2562C32.2022 18.3077 31.7811 15.4192 31.089 13.2596M28.8645 24.3431C30.4411 24.6872 31.7686 24.7391 32.6617 24.3539M32.6617 24.3539C33.7671 23.8772 34.2069 22.7309 33.6297 20.6403M33.6297 20.6403C33.5601 20.3884 33.4758 20.1227 33.376 19.8429C33.3267 19.7045 33.2793 19.5676 33.2337 19.4323M32.3072 14.8348C32.349 16.1273 32.6317 17.6465 33.2337 19.4323M32.3072 14.8348C33.2637 15.277 34.2164 15.7406 35.1419 16.2074M32.3072 14.8348C32.2921 14.37 32.3083 13.9346 32.3519 13.5266M32.3072 14.8348C29.5818 13.575 26.8247 12.489 24.5749 11.998M33.2337 19.4323C34.3252 18.2631 35.0347 17.1597 35.1419 16.2074M35.1419 16.2074C35.2745 15.0284 34.4839 14.0809 32.3519 13.5266M32.3519 13.5266C32.0951 13.4599 31.8188 13.3988 31.5224 13.3438C31.3756 13.3165 31.2312 13.2884 31.089 13.2596M26.5728 11.7489C27.733 12.3596 29.2137 12.8788 31.089 13.2596M26.5728 11.7489C27.4408 11.1562 28.3258 10.5775 29.2001 10.0235M26.5728 11.7489C26.1556 11.5293 25.7798 11.2979 25.442 11.0568M31.089 13.2596C30.6041 11.7462 29.9861 10.5908 29.2001 10.0235M29.2001 10.0235C28.227 9.3213 26.9965 9.52021 25.442 11.0568M25.442 11.0568C25.2548 11.242 25.0628 11.4465 24.866 11.6712C24.7685 11.7825 24.6715 11.8914 24.5749 11.998M20.9851 15.0848C22.1036 14.4031 23.3016 13.403 24.5749 11.998M20.9851 15.0848C20.8967 14.05 20.829 13.0078 20.7778 11.9872M20.9851 15.0848C20.583 15.33 20.1911 15.5339 19.8097 15.7008M24.5749 11.998C22.9984 11.654 21.6709 11.6021 20.7778 11.9872M20.7778 11.9872C19.6723 12.4638 19.2324 13.6101 19.8097 15.7008" stroke="black" stroke-width="0.407094"/>
</svg>
